<svg xmlns="http://www.w3.org/2000/svg" height="16" width="16" version="1.1" viewBox="0 0 4.2333333 4.2333334">
 <g transform="translate(0 -292.77)">
  <path d="m1.5039 0.99805a0.50005 0.50005 0 0 0 -0.0566 0.00195 0.50005 0.50005 0 0 0 -0.295 0.8555l6.1446 6.1445-6.1446 6.141a0.5011 0.5011 0 1 0 0.7071 0.707l6.1406-6.1449 6.145 6.1449a0.50005 0.50005 0 1 0 0.701 -0.707l-6.1409-6.141 6.1409-6.1445a0.50005 0.50005 0 0 0 -0.364 -0.8555 0.50005 0.50005 0 0 0 -0.337 0.1543l-6.145 6.1406-6.1406-6.1406a0.50005 0.50005 0 0 0 -0.3555 -0.15625z" transform="matrix(.26458 0 0 .26458 0 292.77)"/>
 </g>
</svg>
