<svg xmlns="http://www.w3.org/2000/svg" height="16" width="32" version="1.1" viewBox="0 0 8.4666666 4.2333334">
 <g transform="translate(0 -292.77)">
  <g transform="matrix(2.0858 0 0 2.1655 .094306 -343.39)" stroke-width=".47053">
   <path style="color-rendering:auto;text-decoration-color:#000000;color:#000000;font-variant-numeric:normal;shape-rendering:auto;font-variant-ligatures:normal;text-decoration-line:none;font-variant-position:normal;mix-blend-mode:normal;solid-color:#000000;font-feature-settings:normal;shape-padding:0;font-variant-alternates:normal;text-indent:0;dominant-baseline:auto;font-variant-caps:normal;image-rendering:auto;white-space:normal;text-decoration-style:solid;text-orientation:mixed;isolation:auto;text-transform:none" d="m0.38477 293.9a0.062254 0.062254 0 0 0 -0.03125 0.10547l1.5859 1.5859a0.062254 0.062254 0 0 0 0.0879 -0.1l-1.5859-1.5859a0.062254 0.062254 0 0 0 -0.056641 -0.0176z"/>
   <path style="color-rendering:auto;text-decoration-color:#000000;color:#000000;font-variant-numeric:normal;shape-rendering:auto;font-variant-ligatures:normal;text-decoration-line:none;font-variant-position:normal;mix-blend-mode:normal;solid-color:#000000;font-feature-settings:normal;shape-padding:0;font-variant-alternates:normal;text-indent:0;dominant-baseline:auto;font-variant-caps:normal;image-rendering:auto;white-space:normal;text-decoration-style:solid;text-orientation:mixed;isolation:auto;text-transform:none" d="m3.5566 293.9a0.062254 0.062254 0 0 0 -0.029297 0.0176l-1.5859 1.58a0.062254 0.062254 0 0 0 0.087891 0.0879l1.5859-1.5859a0.062254 0.062254 0 0 0 -0.058594 -0.10547z"/>
  </g>
 </g>
</svg>
